<svg xmlns="http://www.w3.org/2000/svg" width="20.419" height="14.873" viewBox="0 0 20.419 14.873">
  <path id="Path_269" data-name="Path 269" d="M17.955,4.71H3.464A2.967,2.967,0,0,0,.5,7.674v8.945a2.967,2.967,0,0,0,2.964,2.964H17.955a2.967,2.967,0,0,0,2.964-2.964V7.674A2.967,2.967,0,0,0,17.955,4.71Zm-.876,1.976L16.17,7.4l-4.848,3.827a.989.989,0,0,1-1.225,0L5.42,7.536l-1.078-.85Zm.876,10.921H3.464a.989.989,0,0,1-.988-.988V7.736l6.4,5.049a2.962,2.962,0,0,0,3.675,0l6.4-5.047v8.88A.989.989,0,0,1,17.955,17.607Z" transform="translate(-0.5 -4.71)" fill="#fff"/>
</svg>
