<svg xmlns="http://www.w3.org/2000/svg" width="16.026" height="20.569" viewBox="0 0 16.026 20.569">
  <path id="Path_265" data-name="Path 265" d="M18.257,21.887a5.659,5.659,0,0,0,2.621-1.661c2.172-2,4.709-5.514,4.709-8.822a7.373,7.373,0,1,0-14.747,0C10.84,16.6,16.893,21.776,18.257,21.887ZM18.213,7.011A3.514,3.514,0,1,1,14.7,10.525a3.514,3.514,0,0,1,3.514-3.514Zm8.013,15.567c0,.687-2.827,2.022-8.013,2.022S10.2,23.265,10.2,22.578c0-.459,1.323-1.312,4.271-1.753a.493.493,0,0,0,.147-.048,7.53,7.53,0,0,0,3.551,2.205h.1c1.1,0,2.709-1.356,3.356-1.952.081-.074.162-.154.243-.235a.735.735,0,0,0,.085.022C24.9,21.265,26.226,22.118,26.226,22.578Z" transform="translate(-10.2 -4.03)" fill="#fff"/>
</svg>
