<svg xmlns="http://www.w3.org/2000/svg" width="117.435" height="60" viewBox="0 0 117.435 60">
  <g id="Group_223" data-name="Group 223" transform="translate(-519.273 -593.806)">
    <path id="Path_207" data-name="Path 207" d="M550.362,614.771a7.988,7.988,0,0,1,2.913-1.039,7.12,7.12,0,0,1,2.146.015c-.061-.109-.113-.222-.176-.329a8.925,8.925,0,0,0-4.436-4.079,6.326,6.326,0,0,0-3.315,1.509,9.774,9.774,0,0,0-1.189,1.3,12.021,12.021,0,0,1,4.051,2.61l.007.011" transform="translate(-4.992 -2.869)" fill="#fff"/>
    <path id="Path_208" data-name="Path 208" d="M552.048,600.721a2.914,2.914,0,0,1-.035-.381,2.741,2.741,0,0,1,.133-.874l-1.205-.391a5.036,5.036,0,0,0-.059.821,4.871,4.871,0,0,0,.113.989Z" transform="translate(-5.836 -0.97)" fill="#fff"/>
    <path id="Path_209" data-name="Path 209" d="M555.059,596.656c.014,0,.024,0,.037,0v-2.666a4.993,4.993,0,0,0-2.15,1.136l.926,1.825a2.689,2.689,0,0,1,1.187-.3" transform="translate(-6.217 -0.034)" fill="#fff"/>
    <path id="Path_210" data-name="Path 210" d="M551.219,601.924a4.99,4.99,0,0,0,.856,1.537l.791-.788a2.7,2.7,0,0,1-.658-1.071Z" transform="translate(-5.898 -1.435)" fill="#fff"/>
    <path id="Path_211" data-name="Path 211" d="M554.637,603.74a2.724,2.724,0,0,1-1.159-.483l-.7.966a5.07,5.07,0,0,0,1.615,1.045Z" transform="translate(-6.186 -1.74)" fill="#fff"/>
    <path id="Path_212" data-name="Path 212" d="M553.17,597.556l-1.092-1.5a5.043,5.043,0,0,0-.963,1.826l1.235.631a2.725,2.725,0,0,1,.819-.957" transform="translate(-5.879 -0.414)" fill="#fff"/>
    <path id="Path_213" data-name="Path 213" d="M535.316,602.082l-1.282-1.765a4.824,4.824,0,0,0-.926,1.931l1.439.737a2.568,2.568,0,0,1,.769-.9" transform="translate(-2.547 -1.199)" fill="#fff"/>
    <path id="Path_214" data-name="Path 214" d="M540.749,604.955a2.4,2.4,0,0,1-.123.64l2.692.875a4.757,4.757,0,0,0,.69-2.2c.007-.124,0-.246,0-.37l-3.287.516a2.4,2.4,0,0,1,.025.543" transform="translate(-3.932 -1.858)" fill="#fff"/>
    <path id="Path_215" data-name="Path 215" d="M540.49,603.249l3.275-1.064a4.836,4.836,0,0,0-1.375-2.457l-2.519,2.508a2.567,2.567,0,0,1,.619,1.013" transform="translate(-3.793 -1.09)" fill="#fff"/>
    <path id="Path_216" data-name="Path 216" d="M537.149,601.208v-3a4.814,4.814,0,0,0-2.238,1.136l1.083,2.137a2.539,2.539,0,0,1,1.155-.277" transform="translate(-2.879 -0.811)" fill="#fff"/>
    <path id="Path_217" data-name="Path 217" d="M541.31,598.827a4.8,4.8,0,0,0-2.286-.736c-.125-.007-.25-.007-.375,0l-.5,3.127a2.531,2.531,0,0,1,1.1.456Z" transform="translate(-3.475 -0.788)" fill="#fff"/>
    <path id="Path_218" data-name="Path 218" d="M537.859,617.924c-2.116-.058-3.341,1.832-3.434,3.857.007.061.01.122.016.184a12.087,12.087,0,0,1,3.433,1.327,10.881,10.881,0,0,1,2.1-4.89,6.682,6.682,0,0,0-.84-.284,5.951,5.951,0,0,0-1.276-.193" transform="translate(-2.79 -4.454)" fill="#fff"/>
    <path id="Path_219" data-name="Path 219" d="M538.208,612.815a7.991,7.991,0,0,0-1.181.819,7.782,7.782,0,0,0-2.619,6.968c-.11-2.2,1.141-4.426,3.434-4.363a6.008,6.008,0,0,1,1.276.192,7.631,7.631,0,0,1,2.766,1.409c.175.135.352.284.519.438a10.487,10.487,0,0,1,1,1,10.669,10.669,0,0,1,.868,1.148c.024.033.039.066.062.1a18.518,18.518,0,0,1,1.629,3.2c1.419,3.652,2.3,8.907.963,12.523a11.927,11.927,0,0,1-3.663,5.046,6.439,6.439,0,0,0,1.867-.4c.122-.047.246-.1.369-.162s.236-.115.356-.182a20.8,20.8,0,0,0,5.7-10.322,17.592,17.592,0,0,0-1.595-11.651,14.529,14.529,0,0,0-2.187-3.08,12.109,12.109,0,0,0-3.735-2.771c-.14-.066-.275-.142-.419-.2a7.388,7.388,0,0,0-1.05-.269,6.125,6.125,0,0,0-4.363.555" transform="translate(-2.773 -3.367)" fill="#fff"/>
    <path id="Path_220" data-name="Path 220" d="M542.583,644.525a28.307,28.307,0,0,0,.845-3.209c.09-.423.162-.857.23-1.285.037-.191.075-.379.1-.572.094-.612.17-1.221.232-1.834a11.176,11.176,0,0,0-1.09-6.814,2.924,2.924,0,0,0-2.631-.873,3.142,3.142,0,0,0-1.385.616,3.37,3.37,0,0,0-.446.388c-.025.026-.049.06-.072.087.167.292.339.578.5.877a18.567,18.567,0,0,1,1.363,3.04,19.52,19.52,0,0,1,.631,2.3c.07.321.149.64.206.966a20.251,20.251,0,0,1,.177,5.55,4.865,4.865,0,0,0,1.338.761" transform="translate(-3.516 -6.669)" fill="#fff"/>
    <path id="Path_221" data-name="Path 221" d="M536.779,607.991a2.521,2.521,0,0,1-1.093-.458l-.592.818a4.8,4.8,0,0,0,1.491.847Z" transform="translate(-2.913 -2.534)" fill="#fff"/>
    <path id="Path_222" data-name="Path 222" d="M533.46,606.3a4.828,4.828,0,0,0,.921,1.379l.7-.694a2.559,2.559,0,0,1-.617-1.01Z" transform="translate(-2.612 -2.24)" fill="#fff"/>
    <path id="Path_223" data-name="Path 223" d="M537.654,608.068v1.342a5.013,5.013,0,0,0,.7.1,4.937,4.937,0,0,0,1.272-.1L538.8,607.8a2.545,2.545,0,0,1-1.15.272" transform="translate(-3.384 -2.583)" fill="#fff"/>
    <path id="Path_224" data-name="Path 224" d="M542.6,607.632l-2.336-1.2a2.571,2.571,0,0,1-.773.9l1.18,1.624a4.82,4.82,0,0,0,1.929-1.328" transform="translate(-3.723 -2.332)" fill="#fff"/>
    <path id="Path_225" data-name="Path 225" d="M558.871,600.315a2.668,2.668,0,0,1-.135.88l3.107,1.008a5.026,5.026,0,0,0,.569-2.4c0-.141-.016-.278-.027-.416l-3.547.556a2.683,2.683,0,0,1,.034.375" transform="translate(-7.287 -1.027)" fill="#fff"/>
    <path id="Path_226" data-name="Path 226" d="M558.593,598.751l3.446-1.119a5.039,5.039,0,0,0-1.626-2.426l-2.479,2.47a2.723,2.723,0,0,1,.659,1.075" transform="translate(-7.139 -0.258)" fill="#fff"/>
    <path id="Path_227" data-name="Path 227" d="M557.532,603.046l1.463,2.014a5.05,5.05,0,0,0,2.107-1.56l-2.751-1.41a2.722,2.722,0,0,1-.818.955" transform="translate(-7.064 -1.525)" fill="#fff"/>
    <path id="Path_228" data-name="Path 228" d="M559.259,594.4a5.009,5.009,0,0,0-2.45-.595c-.083,0-.165.011-.25.017l-.451,2.833a2.69,2.69,0,0,1,1.163.483Z" transform="translate(-6.801)" fill="#fff"/>
    <path id="Path_229" data-name="Path 229" d="M555.581,605.53a5.025,5.025,0,0,0,1.282.152,4.964,4.964,0,0,0,.973-.113l-1.032-2.036a2.7,2.7,0,0,1-1.178.294l-.045,0Z" transform="translate(-6.704 -1.791)" fill="#fff"/>
    <path id="Path_230" data-name="Path 230" d="M528.291,611.147a4.652,4.652,0,0,0-1.578-.915l-.228,1.413a2.6,2.6,0,0,1,1.109.461Z" transform="translate(-1.328 -3.033)" fill="#fff"/>
    <path id="Path_231" data-name="Path 231" d="M524.958,611.621a2.6,2.6,0,0,1,.566-.062v-1.547a4.564,4.564,0,0,0-1.872.037c-.062.012-.122.029-.18.045l.886,1.747a2.565,2.565,0,0,1,.6-.219" transform="translate(-0.773 -2.978)" fill="#fff"/>
    <path id="Path_232" data-name="Path 232" d="M524.857,618.1a2.562,2.562,0,0,1-1.1-.46l-1.692,2.326a4.66,4.66,0,0,0,2.391.643Z" transform="translate(-0.514 -4.4)" fill="#fff"/>
    <path id="Path_233" data-name="Path 233" d="M528.854,613.7l1.048-.341a4.564,4.564,0,0,0-.87-1.486l-.805.8a2.544,2.544,0,0,1,.627,1.023" transform="translate(-1.649 -3.335)" fill="#fff"/>
    <path id="Path_234" data-name="Path 234" d="M528.987,615.753l1.262.409a4.6,4.6,0,0,0-.043-1.777l-1.12.173a2.525,2.525,0,0,1-.1,1.2" transform="translate(-1.789 -3.8)" fill="#fff"/>
    <path id="Path_235" data-name="Path 235" d="M519.5,616.984a4.581,4.581,0,0,0,1.381,2.174l2.088-2.078a2.555,2.555,0,0,1-.625-1.02Z" transform="translate(-0.042 -4.109)" fill="#fff"/>
    <path id="Path_236" data-name="Path 236" d="M529.89,617.173l-1.268-.646a2.557,2.557,0,0,1-.779.908l1.057,1.451a4.658,4.658,0,0,0,.99-1.713" transform="translate(-1.578 -4.195)" fill="#fff"/>
    <path id="Path_237" data-name="Path 237" d="M526.561,618.115a2.645,2.645,0,0,1-.573.06v2.4c.057-.011.115-.023.171-.036a4.571,4.571,0,0,0,1.874-.9l-.881-1.735a2.6,2.6,0,0,1-.591.216" transform="translate(-1.236 -4.449)" fill="#fff"/>
    <path id="Path_238" data-name="Path 238" d="M551.258,637.171c.028-.029.061-.058.091-.085.056-.055.116-.1.173-.154a22.153,22.153,0,0,0,6.723-18.943,14.618,14.618,0,0,0-.713-2.483,10.868,10.868,0,0,0-1.161-2.087,11.633,11.633,0,0,0-1.713-1.911,9.178,9.178,0,0,0-1.342-.982,7.947,7.947,0,0,0-1.5-.69,10.024,10.024,0,0,0-1.3-.417,9.888,9.888,0,0,0-1.964-.285,8.585,8.585,0,0,0-1.85.124l-.025,0a8.427,8.427,0,0,1,5.169,4.617,19.253,19.253,0,0,1,1.106,2.574,20.438,20.438,0,0,1-1.906,17.275c-.3.481-.623.946-.965,1.4-.251.352-.525.68-.794,1.008-.049.054-.091.117-.135.169-.346.4-.711.778-1.093,1.137a16.154,16.154,0,0,1-2.782,2.076c-.01,0-.017.009-.03.015a7.883,7.883,0,0,1-4.375,1.446,7.325,7.325,0,0,1-1.25-.149,6.93,6.93,0,0,1-1.343-.454,6.473,6.473,0,0,1-.637-.306,7.666,7.666,0,0,1-1.221-.88,9.25,9.25,0,0,1-2.582-3.849,9.6,9.6,0,0,1-.4-1.469,9.342,9.342,0,0,1,.7-5.935,7.291,7.291,0,0,1,.489-.837,4.42,4.42,0,0,1,.446-.546,3.6,3.6,0,0,1,.446-.388,3.142,3.142,0,0,1,1.386-.615,2.9,2.9,0,0,1,2.845,1.125c-.055-.1-.12-.184-.174-.276a7.171,7.171,0,0,0-1.013-1.342A19.224,19.224,0,0,0,535.2,622a11.459,11.459,0,0,0-3.105-1.43c-2.945-.849-6.175-.427-8.1,2.328a10.019,10.019,0,0,0-1.265,7.57,17.012,17.012,0,0,0,7.224,9.8c.365.243.741.469,1.119.686a14.255,14.255,0,0,0,5.959,1.921,17.431,17.431,0,0,0,1.8,0c.244-.022,1.148-.089,1.39-.126.865-.139,1.719-.314,2.549-.53a17.833,17.833,0,0,0,7.433-4.08c.362-.308.709-.632,1.053-.959" transform="translate(-0.591 -2.838)" fill="#fff"/>
    <path id="Path_239" data-name="Path 239" d="M523.44,612.145l-1.241-1.708a4.608,4.608,0,0,0-1.807,1.458l2.271,1.162a2.613,2.613,0,0,1,.777-.912" transform="translate(-0.206 -3.071)" fill="#fff"/>
    <path id="Path_240" data-name="Path 240" d="M522.3,613.926l-2.553-.829a4.584,4.584,0,0,0-.459,2.478l2.918-.457a2.564,2.564,0,0,1,.094-1.192" transform="translate(0 -3.562)" fill="#fff"/>
    <path id="Path_241" data-name="Path 241" d="M534.272,605.127a2.647,2.647,0,0,1-.029-.553,2.548,2.548,0,0,1,.123-.628l-1.389-.45c0,.038-.009.078-.013.118a4.86,4.86,0,0,0,.2,1.686Z" transform="translate(-2.519 -1.784)" fill="#fff"/>
    <path id="Path_242" data-name="Path 242" d="M524.49,663.574h-3.933V659.94h3.653a.6.6,0,0,0,.452-.186.619.619,0,0,0,.175-.441.583.583,0,0,0-.186-.437.621.621,0,0,0-.441-.174h-3.653v-3.279H524.4a.622.622,0,0,0,.439-.174.582.582,0,0,0,.186-.437.627.627,0,0,0-.625-.627h-4.312a.805.805,0,0,0-.818.819v8.988a.807.807,0,0,0,.818.819h4.4a.631.631,0,0,0,.627-.627.582.582,0,0,0-.186-.437.619.619,0,0,0-.441-.175" transform="translate(0 -11.154)" fill="#fff"/>
    <path id="Path_243" data-name="Path 243" d="M533.076,654.19a.6.6,0,0,0-.184.442v2.7a4.074,4.074,0,0,0-.661-.244,3.417,3.417,0,0,0-.92-.123,2.775,2.775,0,0,0-2.057.769,2.816,2.816,0,0,0-.761,2.063v2.3a3.152,3.152,0,0,0,.2,1.148,2.56,2.56,0,0,0,.577.893,2.635,2.635,0,0,0,.892.583,3.056,3.056,0,0,0,1.149.209,6.854,6.854,0,0,0,1.169-.1,7.573,7.573,0,0,0,1.109-.279.846.846,0,0,0,.4-.294.772.772,0,0,0,.158-.473v-9.151a.6.6,0,0,0-.184-.442.624.624,0,0,0-.884,0m-3.33,5.536a1.594,1.594,0,0,1,.41-1.165,1.557,1.557,0,0,1,1.156-.414,3.073,3.073,0,0,1,.882.127,1.816,1.816,0,0,1,.7.395v4.859a5.737,5.737,0,0,1-1.581.221,1.554,1.554,0,0,1-1.156-.415,1.59,1.59,0,0,1-.41-1.164Z" transform="translate(-1.698 -11.121)" fill="#fff"/>
    <path id="Path_244" data-name="Path 244" d="M542.059,657.819a.61.61,0,0,0-.183.442V664.2a5.682,5.682,0,0,1-1.567.221,1.446,1.446,0,0,1-1.579-1.58v-4.575a.607.607,0,0,0-.183-.442.625.625,0,0,0-.884,0,.605.605,0,0,0-.184.442v4.5a2.638,2.638,0,0,0,2.831,2.832,6.965,6.965,0,0,0,1.162-.1,7.6,7.6,0,0,0,1.117-.28.807.807,0,0,0,.54-.767v-6.19a.6.6,0,0,0-.184-.442.625.625,0,0,0-.884,0" transform="translate(-3.352 -11.789)" fill="#fff"/>
    <path id="Path_245" data-name="Path 245" d="M548.13,659.228a1.578,1.578,0,0,1,1.164-.415,2.768,2.768,0,0,1,.73.1,4.01,4.01,0,0,1,.716.276.671.671,0,0,0,.708-.111.558.558,0,0,0,.19-.431.6.6,0,0,0-.352-.556,4.537,4.537,0,0,0-1.992-.456,3.113,3.113,0,0,0-1.156.209,2.639,2.639,0,0,0-.9.583,2.556,2.556,0,0,0-.575.894,3.184,3.184,0,0,0-.2,1.147v2.3a3.189,3.189,0,0,0,.2,1.148,2.547,2.547,0,0,0,.575.893,2.644,2.644,0,0,0,.9.583,3.114,3.114,0,0,0,1.156.209,4.537,4.537,0,0,0,1.992-.456.579.579,0,0,0,.352-.556.56.56,0,0,0-.19-.432.608.608,0,0,0-.713-.094,4.027,4.027,0,0,1-.7.259,2.816,2.816,0,0,1-.738.1,1.445,1.445,0,0,1-1.581-1.58v-2.444a1.581,1.581,0,0,1,.417-1.164" transform="translate(-5.02 -11.789)" fill="#fff"/>
    <path id="Path_246" data-name="Path 246" d="M559.7,658.224a2.594,2.594,0,0,0-.863-.444,4.2,4.2,0,0,0-2.158-.009,3.682,3.682,0,0,0-1.12.476.618.618,0,0,0-.308.547.549.549,0,0,0,.191.441.614.614,0,0,0,.734.064,3.879,3.879,0,0,1,.818-.365,2.806,2.806,0,0,1,.823-.121,1.7,1.7,0,0,1,1.064.307,1.059,1.059,0,0,1,.383.9v.811H557.7a4.767,4.767,0,0,0-1.231.144,2.2,2.2,0,0,0-.912.481,2.266,2.266,0,0,0-.69,1.734,2.205,2.205,0,0,0,.693,1.735,3.111,3.111,0,0,0,2.14.668,6.846,6.846,0,0,0,1.154-.1,7.705,7.705,0,0,0,1.109-.28.843.843,0,0,0,.4-.294.775.775,0,0,0,.157-.473v-4.443a2.351,2.351,0,0,0-.219-1.039,2.169,2.169,0,0,0-.6-.745m-2,3.787h1.565V664.2a5.66,5.66,0,0,1-1.565.221,2.579,2.579,0,0,1-.862-.118,1.148,1.148,0,0,1-.468-.292.843.843,0,0,1-.2-.381,2.081,2.081,0,0,1-.048-.433,1.978,1.978,0,0,1,.048-.425.8.8,0,0,1,.2-.365,1.106,1.106,0,0,1,.467-.279,2.715,2.715,0,0,1,.863-.112" transform="translate(-6.572 -11.789)" fill="#fff"/>
    <path id="Path_247" data-name="Path 247" d="M566.68,658.323a.606.606,0,0,0,.433-.167.568.568,0,0,0,.18-.429.6.6,0,0,0-.613-.612H565.1v-2.483a.609.609,0,0,0-.183-.442.624.624,0,0,0-.884,0,.6.6,0,0,0-.184.442v8.144a2.315,2.315,0,0,0,.163.868,2.146,2.146,0,0,0,.442.683,1.941,1.941,0,0,0,.654.442,2.08,2.08,0,0,0,.8.157,4.174,4.174,0,0,0,.434-.023c.144-.015.287-.032.428-.052a.582.582,0,0,0,.381-.215.628.628,0,0,0,.138-.394.544.544,0,0,0-.2-.445.626.626,0,0,0-.395-.153,3.592,3.592,0,0,0-.384.03,3.422,3.422,0,0,1-.4.029.774.774,0,0,1-.573-.237.88.88,0,0,1-.239-.661v-4.482Z" transform="translate(-8.23 -11.121)" fill="#fff"/>
    <path id="Path_248" data-name="Path 248" d="M570.512,657.819a.606.606,0,0,0-.185.442v6.708a.627.627,0,0,0,1.254,0v-6.708a.606.606,0,0,0-.185-.442.625.625,0,0,0-.884,0" transform="translate(-9.426 -11.789)" fill="#fff"/>
    <path id="Path_249" data-name="Path 249" d="M570.918,654.005a.779.779,0,0,0-.791.789.791.791,0,0,0,.228.566.781.781,0,0,0,1.123,0,.79.79,0,0,0,.228-.566.781.781,0,0,0-.789-.789" transform="translate(-9.389 -11.121)" fill="#fff"/>
    <path id="Path_250" data-name="Path 250" d="M579.233,658.463a2.694,2.694,0,0,0-.938-.613,3.484,3.484,0,0,0-2.417,0,2.676,2.676,0,0,0-.937.613,2.86,2.86,0,0,0-.605.944,3.312,3.312,0,0,0-.215,1.208v2a3.3,3.3,0,0,0,.215,1.208,2.825,2.825,0,0,0,.605.944,2.663,2.663,0,0,0,.938.613,3.485,3.485,0,0,0,2.417,0,2.671,2.671,0,0,0,.938-.613,2.837,2.837,0,0,0,.6-.944,3.272,3.272,0,0,0,.216-1.208v-2a3.279,3.279,0,0,0-.216-1.208,2.829,2.829,0,0,0-.6-.944m-.432,2.078v2.147a1.753,1.753,0,0,1-.447,1.276,2,2,0,0,1-2.535,0,1.75,1.75,0,0,1-.447-1.276v-2.147a1.749,1.749,0,0,1,.447-1.276,2,2,0,0,1,2.535,0,1.752,1.752,0,0,1,.447,1.276" transform="translate(-10.128 -11.789)" fill="#fff"/>
    <path id="Path_251" data-name="Path 251" d="M588.323,658.426a2.657,2.657,0,0,0-.893-.583,3.073,3.073,0,0,0-1.149-.208,6.673,6.673,0,0,0-2.277.377.838.838,0,0,0-.4.295.771.771,0,0,0-.159.473v6.189a.606.606,0,0,0,.185.441.624.624,0,0,0,.884,0,.6.6,0,0,0,.184-.441v-5.935a5.727,5.727,0,0,1,1.58-.22,1.556,1.556,0,0,1,1.156.414,1.6,1.6,0,0,1,.41,1.165v4.576a.626.626,0,0,0,1.252,0v-4.5a3.154,3.154,0,0,0-.2-1.148,2.569,2.569,0,0,0-.576-.894" transform="translate(-11.85 -11.789)" fill="#fff"/>
    <path id="Path_252" data-name="Path 252" d="M602.7,660.087a3.419,3.419,0,0,0-.715-.592c-.262-.163-.537-.317-.818-.458l-1.613-.784a2.454,2.454,0,0,1-.848-.64,1.368,1.368,0,0,1-.27-.864,1.414,1.414,0,0,1,.168-.716,1.46,1.46,0,0,1,.45-.478,1.915,1.915,0,0,1,.628-.264,3.767,3.767,0,0,1,1.747.044,6.376,6.376,0,0,1,.9.309.573.573,0,0,0,.262.057.608.608,0,0,0,.443-.184.592.592,0,0,0,.184-.427.635.635,0,0,0-.1-.356.583.583,0,0,0-.3-.232,8.3,8.3,0,0,0-1.1-.353,5.6,5.6,0,0,0-1.348-.144,4.046,4.046,0,0,0-1.221.183,3.2,3.2,0,0,0-1.025.532,2.654,2.654,0,0,0-.706.853,2.448,2.448,0,0,0-.265,1.145,3.179,3.179,0,0,0,.132.963,2.329,2.329,0,0,0,.376.727,2.668,2.668,0,0,0,.581.551,4.832,4.832,0,0,0,.758.432l1.612.784c.193.1.384.2.567.321a2.24,2.24,0,0,1,.469.392,1.937,1.937,0,0,1,.328.5,1.388,1.388,0,0,1,.123.592,1.677,1.677,0,0,1-.486,1.287,2.191,2.191,0,0,1-1.524.456,4.235,4.235,0,0,1-1.051-.13,5.7,5.7,0,0,1-1-.361.579.579,0,0,0-.262-.058.616.616,0,0,0-.441.175.577.577,0,0,0-.187.437.619.619,0,0,0,.1.34.61.61,0,0,0,.271.231,8.114,8.114,0,0,0,1.241.414,5.5,5.5,0,0,0,1.324.159,4.105,4.105,0,0,0,1.252-.19,3.141,3.141,0,0,0,1.046-.563,2.784,2.784,0,0,0,.722-.922,2.863,2.863,0,0,0,.272-1.276,2.9,2.9,0,0,0-.187-1.082,2.628,2.628,0,0,0-.5-.807" transform="translate(-14.38 -11.121)" fill="#fff"/>
    <path id="Path_253" data-name="Path 253" d="M611.955,658.463a2.693,2.693,0,0,0-.94-.613,3.475,3.475,0,0,0-2.413,0,2.7,2.7,0,0,0-.939.613,2.831,2.831,0,0,0-.6.944,3.3,3.3,0,0,0-.215,1.208v2a3.289,3.289,0,0,0,.215,1.208,2.81,2.81,0,0,0,.6.944,2.684,2.684,0,0,0,.939.613,3.476,3.476,0,0,0,2.413,0,2.669,2.669,0,0,0,.94-.613,2.8,2.8,0,0,0,.6-.944,3.255,3.255,0,0,0,.217-1.208v-2a3.262,3.262,0,0,0-.217-1.208,2.8,2.8,0,0,0-.6-.944m-.432,2.078v2.147a1.753,1.753,0,0,1-.446,1.276,2,2,0,0,1-2.535,0,1.746,1.746,0,0,1-.446-1.276v-2.147a1.745,1.745,0,0,1,.446-1.276,2,2,0,0,1,2.535,0,1.752,1.752,0,0,1,.446,1.276" transform="translate(-16.17 -11.789)" fill="#fff"/>
    <path id="Path_254" data-name="Path 254" d="M616.357,654.189a.607.607,0,0,0-.184.442V664.3a.625.625,0,0,0,1.068.442.611.611,0,0,0,.184-.442v-9.669a.612.612,0,0,0-.184-.442.626.626,0,0,0-.884,0" transform="translate(-17.891 -11.121)" fill="#fff"/>
    <path id="Path_255" data-name="Path 255" d="M624.347,657.819a.609.609,0,0,0-.184.442V664.2a5.665,5.665,0,0,1-1.565.221,1.445,1.445,0,0,1-1.58-1.58v-4.575a.606.606,0,0,0-.184-.442.627.627,0,0,0-.885,0,.611.611,0,0,0-.184.442v4.5a2.639,2.639,0,0,0,2.833,2.832,6.968,6.968,0,0,0,1.161-.1,7.56,7.56,0,0,0,1.116-.28.784.784,0,0,0,.392-.3.8.8,0,0,0,.15-.471v-6.19a.607.607,0,0,0-.186-.442.624.624,0,0,0-.884,0" transform="translate(-18.556 -11.789)" fill="#fff"/>
    <path id="Path_256" data-name="Path 256" d="M631.583,658.323a.6.6,0,0,0,.432-.167.571.571,0,0,0,.18-.429.6.6,0,0,0-.611-.612H630v-2.483a.61.61,0,0,0-.184-.442.622.622,0,0,0-.883,0,.594.594,0,0,0-.185.442v8.144a2.283,2.283,0,0,0,.164.868,2.153,2.153,0,0,0,.44.683,1.964,1.964,0,0,0,.656.442,2.084,2.084,0,0,0,.8.157,4.165,4.165,0,0,0,.435-.023c.145-.015.286-.032.428-.052a.586.586,0,0,0,.382-.215.622.622,0,0,0,.137-.394.546.546,0,0,0-.2-.445.629.629,0,0,0-.4-.153,3.669,3.669,0,0,0-.384.03,3.4,3.4,0,0,1-.4.029.778.778,0,0,1-.572-.237.885.885,0,0,1-.237-.661v-4.482Z" transform="translate(-20.214 -11.121)" fill="#fff"/>
    <path id="Path_257" data-name="Path 257" d="M635.818,654.005a.78.78,0,0,0-.79.789.793.793,0,0,0,.227.566.782.782,0,0,0,1.124,0,.784.784,0,0,0,.228-.566.78.78,0,0,0-.79-.789" transform="translate(-21.385 -11.121)" fill="#fff"/>
    <path id="Path_258" data-name="Path 258" d="M635.413,657.819a.611.611,0,0,0-.184.442v6.708a.627.627,0,0,0,1.253,0v-6.708a.609.609,0,0,0-.185-.442.625.625,0,0,0-.884,0" transform="translate(-21.422 -11.789)" fill="#fff"/>
    <path id="Path_259" data-name="Path 259" d="M644.133,658.463a2.684,2.684,0,0,0-.937-.613,3.479,3.479,0,0,0-2.415,0,2.664,2.664,0,0,0-.938.613,2.792,2.792,0,0,0-.6.944,3.262,3.262,0,0,0-.217,1.208v2a3.255,3.255,0,0,0,.217,1.208,2.784,2.784,0,0,0,.6.944,2.652,2.652,0,0,0,.938.613,3.48,3.48,0,0,0,2.415,0,2.66,2.66,0,0,0,.937-.613,2.8,2.8,0,0,0,.6-.944,3.272,3.272,0,0,0,.215-1.208v-2a3.279,3.279,0,0,0-.215-1.208,2.793,2.793,0,0,0-.6-.944m-.432,2.078v2.147a1.75,1.75,0,0,1-.446,1.276,2,2,0,0,1-2.534,0,1.749,1.749,0,0,1-.445-1.276v-2.147a1.748,1.748,0,0,1,.445-1.276,2,2,0,0,1,2.534,0,1.748,1.748,0,0,1,.446,1.276" transform="translate(-22.121 -11.789)" fill="#fff"/>
    <path id="Path_260" data-name="Path 260" d="M653.225,658.426a2.669,2.669,0,0,0-.893-.583,3.074,3.074,0,0,0-1.15-.208,6.658,6.658,0,0,0-2.276.377.834.834,0,0,0-.4.295.762.762,0,0,0-.16.473v6.189a.606.606,0,0,0,.185.441.625.625,0,0,0,.885,0,.613.613,0,0,0,.183-.441v-5.935a5.733,5.733,0,0,1,1.58-.22,1.557,1.557,0,0,1,1.157.414,1.6,1.6,0,0,1,.41,1.165v4.576a.63.63,0,0,0,.627.626.61.61,0,0,0,.441-.184.6.6,0,0,0,.184-.441v-4.5a3.19,3.19,0,0,0-.2-1.148,2.6,2.6,0,0,0-.576-.894" transform="translate(-23.838 -11.789)" fill="#fff"/>
    <path id="Path_261" data-name="Path 261" d="M661.765,662.012a2.684,2.684,0,0,0-1.122-.815l-1.392-.562a1.473,1.473,0,0,1-.458-.316.78.78,0,0,1-.207-.592.791.791,0,0,1,.366-.7,1.333,1.333,0,0,1,.373-.162,1.634,1.634,0,0,1,.412-.055,3.487,3.487,0,0,1,1.492.316.611.611,0,0,0,.676-.1.533.533,0,0,0,.191-.427.621.621,0,0,0-.385-.587,5.353,5.353,0,0,0-.842-.273,3.9,3.9,0,0,0-1.976.039,2.414,2.414,0,0,0-.8.429,2.128,2.128,0,0,0-.55.675,2.146,2.146,0,0,0,.21,2.189,2.637,2.637,0,0,0,.947.691l1.389.577a1.83,1.83,0,0,1,.661.441.983.983,0,0,1,.2.66.818.818,0,0,1-.351.708,1.42,1.42,0,0,1-.847.265,3.138,3.138,0,0,1-.8-.1,4.48,4.48,0,0,1-.725-.258.86.86,0,0,0-.12-.051.459.459,0,0,0-.142-.021.63.63,0,0,0-.448.167.571.571,0,0,0-.179.43.588.588,0,0,0,.366.569,4.415,4.415,0,0,0,.928.327,4.753,4.753,0,0,0,1.079.114,2.712,2.712,0,0,0,.986-.178,2.459,2.459,0,0,0,.792-.491,2.259,2.259,0,0,0,.526-.737,2.232,2.232,0,0,0,.188-.908,1.981,1.981,0,0,0-.435-1.269" transform="translate(-25.493 -11.789)" fill="#fff"/>
    <path id="Path_262" data-name="Path 262" d="M628.264,611.989c-.018-.11-.609-2.52-4.822-2.52h-13.9a1.245,1.245,0,0,0-.924.5,1.373,1.373,0,0,0-.251,1.136c.327,1.461,1.623,2.5,4.359,2.5H615.3v28.367a.92.92,0,0,0,.864.949H620.2a.9.9,0,0,0,.89-.949V613.6h5.955a1.129,1.129,0,0,0,.923-.468,1.532,1.532,0,0,0,.3-1.148" transform="translate(-16.451 -2.884)" fill="#fff"/>
    <path id="Path_263" data-name="Path 263" d="M657.287,613.42a7.408,7.408,0,0,0-2.875-2.579,10.239,10.239,0,0,0-3.374-1.077,22,22,0,0,0-2.888-.247H637.924a.943.943,0,0,0-.878.974v31.49a.93.93,0,0,0,.878.949h4.048a.92.92,0,0,0,.879-.949v-.046c0-.113.043-.222.043-.353v-6.487h5.256a20.477,20.477,0,0,0,2.888-.245,9.751,9.751,0,0,0,3.374-1.077,7.988,7.988,0,0,0,4.052-7.426v-8.266a8.089,8.089,0,0,0-1.177-4.659m-4.644,14.335a3.934,3.934,0,0,1-.445,2.219,3.809,3.809,0,0,1-1.238,1.228,5.529,5.529,0,0,1-1.83.54,19.485,19.485,0,0,1-1.961.125h-4.275V612.513h4.275c.536,0,1.189.046,1.961.117a5.3,5.3,0,0,1,1.83.575,3.23,3.23,0,0,1,1.238,1.209,4.185,4.185,0,0,1,.445,2.284Z" transform="translate(-21.757 -2.893)" fill="#fff"/>
    <path id="Path_264" data-name="Path 264" d="M600.055,615.536a6.979,6.979,0,0,0-1.593-3.161,8.778,8.778,0,0,0-3.364-2.139,15.861,15.861,0,0,0-5.4-.767h-9.835a.922.922,0,0,0-.9.967v31.535a.915.915,0,0,0,.9.949H589.7a15.893,15.893,0,0,0,5.4-.776,8.432,8.432,0,0,0,3.364-2.132,6.98,6.98,0,0,0,1.593-3.166,15.251,15.251,0,0,0,.361-3.165V618.764a15.633,15.633,0,0,0-.361-3.228m-5.492,19.75a14.082,14.082,0,0,1-.12,1.591,3.288,3.288,0,0,1-.538,1.366,3.383,3.383,0,0,1-1.366,1.162,6.2,6.2,0,0,1-2.843.521l-4.865-.032V612.51H589.7a6.9,6.9,0,0,1,2.87.513,3.419,3.419,0,0,1,1.877,2.505,14.083,14.083,0,0,1,.12,1.635Z" transform="translate(-11.027 -2.884)" fill="#fff"/>
  </g>
</svg>
