<svg xmlns="http://www.w3.org/2000/svg" xmlns:xlink="http://www.w3.org/1999/xlink" width="140" height="140" viewBox="0 0 140 140">
  <defs>
    <clipPath id="clip-path">
      <rect id="Rectangle_360" data-name="Rectangle 360" width="72.828" height="77.422" fill="none" stroke="#0e48cb" stroke-width="3"/>
    </clipPath>
  </defs>
  <g id="Group_633" data-name="Group 633" transform="translate(-398 -1047)">
    <g id="Ellipse_53" data-name="Ellipse 53" transform="translate(398 1047)" fill="#fff" stroke="#0e48cb" stroke-width="3">
      <circle cx="70" cy="70" r="70" stroke="none"/>
      <circle cx="70" cy="70" r="68.5" fill="none"/>
    </g>
    <g id="Group_632" data-name="Group 632">
      <g id="Group_557" data-name="Group 557" transform="translate(431.586 1078.289)">
        <g id="Group_557-2" data-name="Group 557" transform="translate(0 0)" clip-path="url(#clip-path)">
          <path id="Path_856" data-name="Path 856" d="M13.615,73.858V47.89a2.181,2.181,0,0,1,2.176-2.176H55.52A2.187,2.187,0,0,1,57.7,47.89V73.858M1.625,75.187H69.689M32,16.01v1.1m7.115-1.1v1.1m-1.626,6.766a3.068,3.068,0,0,1-3.862,0m-5.3-16.069c-2.556,5.433-3.745,11.721-1.752,17.528.82,2.4,5.5,5.718,8.643,5.718s7.5-3.456,8.643-5.718c1.534-3.044,1.516-6.7,1.52-10.21m-.913,20.022c1.015.6,3.825-2.285,4.067-2.5C54.4,27.5,52.348,8.559,47.132,3.831c-5.378-4.869-22.06-3.7-20.108,1.278-12.492-.753-7.687,28.568-2.272,30.309M27.024,5.109c.574,4.34,6.282,5.507,11.137,6.106,9.238,1.144,12.216,11.678,10.37,21.433M11.562,74.489l-8.854-7.57C1.525,65.908.068,63.6,1.034,61.736L11.556,41.415a7.135,7.135,0,0,1,5.1-3.46c6.534-1.368,13.795-1.507,13.795-8.288m29.3,44.822,8.854-7.57c1.183-1.011,2.64-3.316,1.674-5.183L59.758,41.415a7.135,7.135,0,0,0-5.1-3.46c-6.534-1.368-13.793-1.507-13.793-8.288" transform="translate(0.756 0.757)" fill="none" stroke="#0e48cb" stroke-linecap="round" stroke-linejoin="round" stroke-width="3"/>
        </g>
      </g>
    </g>
  </g>
</svg>
