<svg xmlns="http://www.w3.org/2000/svg" xmlns:xlink="http://www.w3.org/1999/xlink" width="140" height="140" viewBox="0 0 140 140">
  <defs>
    <clipPath id="clip-path">
      <rect id="Rectangle_369" data-name="Rectangle 369" width="73.13" height="69.226" fill="none" stroke="#0e48cb" stroke-width="3"/>
    </clipPath>
  </defs>
  <g id="Group_635" data-name="Group 635" transform="translate(-398 -1047)">
    <g id="Ellipse_53" data-name="Ellipse 53" transform="translate(398 1047)" fill="#fff" stroke="#0e48cb" stroke-width="3">
      <circle cx="70" cy="70" r="70" stroke="none"/>
      <circle cx="70" cy="70" r="68.5" fill="none"/>
    </g>
    <g id="Group_634" data-name="Group 634">
      <g id="Group_567" data-name="Group 567" transform="translate(431.435 1082.389)">
        <g id="Group_567-2" data-name="Group 567" transform="translate(0 -0.001)" clip-path="url(#clip-path)">
          <path id="Path_866" data-name="Path 866" d="M48.523,32.73l13.549-6.366c8.027-5.835,10.866,1.554,7.29,3.368L51.6,40.955l-7.529,4.758c-5.33,3.364-12.361,3.416-14.339,2.236-11.239-2.9-14.481-5.657-24.281-4.4m-4.727-20,11.618-4.721c2.965-1.206,6.283-.9,7.533.031q3.15,2.332,6.3,4.663C34.9,29.992,35.61,28.374,45.9,28.987c2.281.136,3.782,3.809,0,5.262C36.3,38.643,30.368,36.673,21.61,32.189" transform="translate(0.762 19.096)" fill="none" stroke="#0e48cb" stroke-linecap="round" stroke-linejoin="round" stroke-width="3"/>
          <circle id="Ellipse_54" data-name="Ellipse 54" cx="18.022" cy="18.022" r="18.022" transform="translate(25.434 1.484)" fill="none" stroke="#0e48cb" stroke-linecap="round" stroke-linejoin="round" stroke-width="3"/>
          <path id="Path_867" data-name="Path 867" d="M17.693,20.79H28.009a3.743,3.743,0,0,0,0-7.486H21.436a3.744,3.744,0,0,1,0-7.488H31.752" transform="translate(18.733 6.16)" fill="none" stroke="#0e48cb" stroke-linecap="round" stroke-linejoin="round" stroke-width="3"/>
          <line id="Line_62" data-name="Line 62" y1="4.206" transform="translate(43.456 7.798)" fill="none" stroke="#0e48cb" stroke-linecap="round" stroke-linejoin="round" stroke-width="3"/>
          <line id="Line_63" data-name="Line 63" y1="4.206" transform="translate(43.456 27.009)" fill="none" stroke="#0e48cb" stroke-linecap="round" stroke-linejoin="round" stroke-width="3"/>
        </g>
      </g>
    </g>
  </g>
</svg>
