<svg xmlns="http://www.w3.org/2000/svg" xmlns:xlink="http://www.w3.org/1999/xlink" width="140" height="140" viewBox="0 0 140 140">
  <defs>
    <clipPath id="clip-path">
      <rect id="Rectangle_359" data-name="Rectangle 359" width="69.039" height="69.226" fill="none" stroke="#707070" stroke-width="3"/>
    </clipPath>
  </defs>
  <g id="Group_631" data-name="Group 631" transform="translate(-398 -1047)">
    <g id="Group_630" data-name="Group 630">
      <g id="Ellipse_53" data-name="Ellipse 53" transform="translate(398 1047)" fill="#fff" stroke="#0e48cb" stroke-width="3">
        <circle cx="70" cy="70" r="70" stroke="none"/>
        <circle cx="70" cy="70" r="68.5" fill="none"/>
      </g>
    </g>
    <g id="Group_550" data-name="Group 550" transform="translate(441.48 1082.387)">
      <g id="Group_549" data-name="Group 549" transform="translate(0 0)" clip-path="url(#clip-path)">
        <path id="Path_849" data-name="Path 849" d="M21.363,17.206h0a3.287,3.287,0,0,1,4.268,1.62L29.3,26.792a3.421,3.421,0,0,1,1.845-1.8,3.28,3.28,0,0,1,4.064,1.216,3.388,3.388,0,0,1,1.991-2.23h0a3.28,3.28,0,0,1,4.062,1.216,3.387,3.387,0,0,1,1.993-2.23,3.183,3.183,0,0,1,4.268,1.62L51.7,36.529c3.392,9.712-8.718,19.953-17.79,14.082L18.168,40.43a3.027,3.027,0,0,1-.752-4.371c1.675-.69,4.989-.654,6.471.306l2.981,1.928L19.489,21.363A3.213,3.213,0,0,1,21.363,17.206Z" transform="translate(15.326 15.458)" fill="none" stroke="#0e48cb" stroke-linecap="round" stroke-linejoin="round" stroke-width="3"/>
        <path id="Path_850" data-name="Path 850" d="M5.107,14.555,7.5,17.672l4.88-6.314" transform="translate(4.659 10.361)" fill="none" stroke="#0e48cb" stroke-linecap="round" stroke-linejoin="round" stroke-width="3"/>
        <line id="Line_56" data-name="Line 56" x2="15.673" transform="translate(22.457 25.51)" fill="none" stroke="#0e48cb" stroke-linecap="round" stroke-linejoin="round" stroke-width="3"/>
        <path id="Path_851" data-name="Path 851" d="M5.107,19.768,7.5,22.885l4.88-6.314" transform="translate(4.659 15.118)" fill="none" stroke="#0e48cb" stroke-linecap="round" stroke-linejoin="round" stroke-width="3"/>
        <line id="Line_57" data-name="Line 57" x2="12.13" transform="translate(22.457 35.48)" fill="none" stroke="#0e48cb" stroke-linecap="round" stroke-linejoin="round" stroke-width="3"/>
        <path id="Path_852" data-name="Path 852" d="M5.07,24.945l2.388,3.117,4.88-6.314" transform="translate(4.625 19.84)" fill="none" stroke="#0e48cb" stroke-linecap="round" stroke-linejoin="round" stroke-width="3"/>
        <path id="Path_853" data-name="Path 853" d="M18.181,39.651H33.854M4.608,6.28H20.281" transform="translate(4.204 5.729)" fill="none" stroke="#0e48cb" stroke-linecap="round" stroke-linejoin="round" stroke-width="3"/>
        <path id="Path_854" data-name="Path 854" d="M30.583.75H3.081A2.342,2.342,0,0,0,.75,3.081V59.7a2.339,2.339,0,0,0,2.331,2.331H43.447" transform="translate(0.684 0.685)" fill="none" stroke="#0e48cb" stroke-linecap="round" stroke-linejoin="round" stroke-width="3"/>
        <line id="Line_58" data-name="Line 58" y1="22.683" transform="translate(46.463 16.628)" fill="none" stroke="#0e48cb" stroke-linecap="round" stroke-linejoin="round" stroke-width="3"/>
        <path id="Path_855" data-name="Path 855" d="M31.546,15.943H18.682a2.338,2.338,0,0,1-2.331-2.331V.75Z" transform="translate(14.917 0.685)" fill="none" stroke="#0e48cb" stroke-linecap="round" stroke-linejoin="round" stroke-width="3"/>
      </g>
    </g>
  </g>
</svg>
