<svg xmlns="http://www.w3.org/2000/svg" width="60.004" height="60.004" viewBox="0 0 60.004 60.004">
  <path id="Email_Icon" data-name="Email Icon" d="M-144.644,171.795c-23.335,0-30,6.667-30,30s6.667,30,30,30c16.571,0,30-6.667,30-30S-121.309,171.795-144.644,171.795Zm16.628,17.261L-141.464,202.5a4.6,4.6,0,0,1-6.359,0l-13.448-13.448Zm-35.364,2.128,10.621,10.622-10.621,10.621Zm2.128,23.355,10.612-10.614.7.7a7.442,7.442,0,0,0,5.3,2.2,7.446,7.446,0,0,0,5.3-2.2l.7-.7,10.612,10.614Zm35.346-2.112-10.622-10.621,10.622-10.622Z" transform="translate(174.646 -171.795)" fill="#565b74" opacity="0.2"/>
</svg>
