<svg xmlns="http://www.w3.org/2000/svg" width="42" height="42" viewBox="0 0 42 42">
  <g id="Group_630" data-name="Group 630" transform="translate(-315 -1258)">
    <g id="Ellipse_55" data-name="Ellipse 55" transform="translate(315 1258)" fill="#fff" stroke="#c4c6d2" stroke-width="2">
      <circle cx="21" cy="21" r="21" stroke="none"/>
      <circle cx="21" cy="21" r="20" fill="none"/>
    </g>
    <path id="Path_385" data-name="Path 385" d="M65.4,64A7.1,7.1,0,0,0,60,66.535,7.1,7.1,0,0,0,54.6,64,6.526,6.526,0,0,0,48,70.64c0,4.587,4.08,8.27,10.26,13.944L60,86.154l1.74-1.57C67.92,78.91,72,75.228,72,70.64A6.526,6.526,0,0,0,65.4,64ZM60.741,83l-.243.223-.5.448-.5-.448L59.26,83a73.465,73.465,0,0,1-7.082-7.038c-1.613-2-2.332-3.643-2.332-5.318a4.805,4.805,0,0,1,1.368-3.422A4.725,4.725,0,0,1,54.6,65.846a5.28,5.28,0,0,1,3.987,1.878L60,69.4l1.413-1.68A5.28,5.28,0,0,1,65.4,65.846a4.725,4.725,0,0,1,3.386,1.372,4.806,4.806,0,0,1,1.368,3.422c0,1.675-.719,3.315-2.332,5.318A73.458,73.458,0,0,1,60.741,83Z" transform="translate(276 1203.923)" fill="#c4c6d2"/>
  </g>
</svg>
