<svg xmlns="http://www.w3.org/2000/svg" width="60.004" height="60.004" viewBox="0 0 60.004 60.004">
  <g id="Youtube_Icon" data-name="Youtube Icon" opacity="0.2">
    <path id="Path_126" data-name="Path 126" d="M-275.892,199.539c4.772-2.582,9.821-4.98,13.649-7.1l-13.649-7.17Z" transform="translate(300.279 -162.812)" fill="#565b74"/>
    <path id="Path_127" data-name="Path 127" d="M-260.521,171.795c-23.335,0-30,6.667-30,30s6.667,30,30,30c16.571,0,30-6.667,30-30a77.289,77.289,0,0,0-.612-10.394C-233.136,176.466-240.99,171.795-260.521,171.795Zm18.855,33.887a18.176,18.176,0,0,1-.893,5.847,4.292,4.292,0,0,1-1.052,1.72,4.961,4.961,0,0,1-2.63,1.342c-6.242.482-11.522.568-17.543.482a77.572,77.572,0,0,1-11.179-.568,4.908,4.908,0,0,1-2.564-1.342,5.4,5.4,0,0,1-1.222-2.338,16.327,16.327,0,0,1-.515-3.44,82.961,82.961,0,0,1,0-11.149c.172-2.063.347-4.507,1.89-5.934a4.945,4.945,0,0,1,2.512-1.272,135.1,135.1,0,0,1,14.344-.517,135.175,135.175,0,0,1,14.4.533,5.02,5.02,0,0,1,2.959,1.72,14.622,14.622,0,0,1,1.565,7.1C-241.6,198.9-241.6,204.714-241.667,205.682Z" transform="translate(290.523 -171.795)" fill="#565b74"/>
  </g>
</svg>
