<svg xmlns="http://www.w3.org/2000/svg" width="60.004" height="60.004" viewBox="0 0 60.004 60.004">
  <path id="Phone_Icon" data-name="Phone Icon" d="M-202.582,171.795c-23.335,0-30,6.667-30,30s6.667,30,30,30c16.569,0,30-6.667,30-30S-179.247,171.795-202.582,171.795ZM-187,213.823a4.823,4.823,0,0,1-4.81,4.61q-.105,0-.21-.005a29.1,29.1,0,0,1-27.188-27.157l-.005-.288a4.86,4.86,0,0,1,4.859-4.769h2.785a4.842,4.842,0,0,1,4.809,4.285l.468,4.069a4.8,4.8,0,0,1-1.382,3.974l-2.137,2.135a22.485,22.485,0,0,0,8.354,8.354l2.12-2.118a4.8,4.8,0,0,1,3.975-1.383l4.1.468A4.8,4.8,0,0,1-187,210.8Z" transform="translate(232.584 -171.795)" fill="#565b74" opacity="0.2"/>
</svg>
