<svg xmlns="http://www.w3.org/2000/svg" width="60.004" height="60.004" viewBox="0 0 60.004 60.004">
  <path id="Zalo_Icon" data-name="Zalo Icon" d="M-182.058,115.795c-23.335,0-30,6.667-30,30s6.667,30,30,30c16.569,0,30-6.667,30-30S-158.723,115.795-182.058,115.795Zm12.019,46.851h-24.04a3.334,3.334,0,0,1-3.042-1.968,3.334,3.334,0,0,1,.55-3.58l19.106-21.481h-16.614a3.334,3.334,0,0,1-3.334-3.334,3.333,3.333,0,0,1,3.334-3.334h24.04A3.334,3.334,0,0,1-167,130.918a3.337,3.337,0,0,1-.55,3.58l-19.106,21.481h16.614a3.334,3.334,0,0,1,3.334,3.334A3.333,3.333,0,0,1-170.039,162.646Z" transform="translate(212.06 -115.795)" fill="#565b74" opacity="0.2"/>
</svg>
