<svg xmlns="http://www.w3.org/2000/svg" width="100" height="100" viewBox="0 0 100 100">
  <g id="Group_643" data-name="Group 643" transform="translate(-1478 -2942)">
    <g id="Group_642" data-name="Group 642">
      <g id="Ellipse_17" data-name="Ellipse 17" transform="translate(1478 2942)" fill="none" stroke="#ff803c" stroke-width="2">
        <circle cx="50" cy="50" r="50" stroke="none"/>
        <circle cx="50" cy="50" r="49" fill="none"/>
      </g>
    </g>
    <path id="Path_358" data-name="Path 358" d="M10.652,35.565a1.306,1.306,0,0,0,.914.418h0a1.306,1.306,0,0,0,.888-.353l.353-.326L16.4,39.13a3.787,3.787,0,0,0,.183,5.119,3.708,3.708,0,0,0,2.429,1.084,3.787,3.787,0,0,0,1.11,2.429,3.735,3.735,0,0,0,2.429,1.084,3.787,3.787,0,0,0,1.084,2.429,3.735,3.735,0,0,0,2.429,1.084,3.787,3.787,0,0,0,6.451,2.429l.457-.457.431.444a3.826,3.826,0,0,0,5.419,0,3.761,3.761,0,0,0,1.11-2.455,3.787,3.787,0,0,0,2.481-1.11,3.735,3.735,0,0,0,1.1-2.468,3.826,3.826,0,0,0,2.481-1.1,3.917,3.917,0,0,0,1.1-2.481,3.767,3.767,0,0,0,2.925-5.9l3.826-3.708.418.483a1.3,1.3,0,0,0,1.841.118l8.631-7.587a1.306,1.306,0,0,0,.118-1.841L49.069,8.705a1.306,1.306,0,0,0-1.854-.118L38.6,16.161A1.3,1.3,0,0,0,38.479,18l.679.783h-.5a15.173,15.173,0,0,0-7.038,2.781l-1.906-1.893.3-.274a1.306,1.306,0,0,0,.078-1.854L22.261,9.136a1.2,1.2,0,0,0-1.776-.1L2.909,25.3a1.306,1.306,0,0,0,0,1.841Zm7.835,5.223,1.8-1.8a1.177,1.177,0,0,1,1.671,1.658l-1.841,1.763a1.175,1.175,0,0,1-1.658,0,1.188,1.188,0,0,1,.013-1.671Zm3.16,4.348A1.188,1.188,0,0,1,22,44.3l1.8-1.8a1.162,1.162,0,0,1,1.671,0,1.149,1.149,0,0,1,.34.823,1.175,1.175,0,0,1-.34.836L23.645,45.92a1.188,1.188,0,0,1-2.011-.836Zm3.513,3.513a1.188,1.188,0,0,1,.353-.836l1.8-1.8a1.162,1.162,0,0,1,1.671,0h0a1.149,1.149,0,0,1,.34.823,1.175,1.175,0,0,1-.34.836l-1.815,1.815a1.175,1.175,0,0,1-1.658,0,1.188,1.188,0,0,1-.366-.888ZM29.077,53a1.162,1.162,0,0,1,0-1.671l1.8-1.8a1.162,1.162,0,0,1,1.671,0,1.188,1.188,0,0,1,0,1.658l-.431.431h0L30.735,53a1.175,1.175,0,0,1-1.724-.052ZM47.959,11.408l14.063,16-6.646,5.863-14.076-16ZM38.975,21.437l1.737-.209a1.175,1.175,0,0,0,.366-.1h.1L52.1,33.554l-3.917,3.761-10.6-11.151a1.306,1.306,0,0,0-1.632-.209l-2.768,1.763a6.346,6.346,0,0,1-5.772.47l5.471-4.244a12.47,12.47,0,0,1,6.1-2.507ZM29.521,23.2,25.5,26.32a2.377,2.377,0,0,0-.927,2.155,2.416,2.416,0,0,0,1.306,1.933,9.01,9.01,0,0,0,8.605-.483L36.455,28.7,47.228,40.031h0l.431.431a1.175,1.175,0,0,1,.353.862,1.188,1.188,0,0,1-.353.862,1.227,1.227,0,0,1-1.724,0h0a1.307,1.307,0,0,0-1.854,1.841h0a1.215,1.215,0,0,1-1.671,1.763,1.311,1.311,0,0,0-1.854,1.854,1.214,1.214,0,0,1,0,1.724,1.306,1.306,0,0,1-1.737,0,1.306,1.306,0,0,0-1.841,1.841,1.227,1.227,0,0,1-1.724,1.737l-.5-.5a3.774,3.774,0,0,0-.444-4.818h0a3.8,3.8,0,0,0-2.442-1.1,3.748,3.748,0,0,0-3.526-3.513,3.643,3.643,0,0,0-3.5-3.473,3.774,3.774,0,0,0-1.1-2.468,3.917,3.917,0,0,0-5.354,0l-.183.183-3.447-3.735,13.058-12.1Zm-8.266-11.36,6.033,6.529L12.023,32.51h0l-.326.313L5.651,26.294Z" transform="translate(1494.152 2959.744)" fill="#ff803c"/>
  </g>
</svg>
