<svg xmlns="http://www.w3.org/2000/svg" width="100" height="100" viewBox="0 0 100 100">
  <g id="Group_643" data-name="Group 643" transform="translate(-910 -2944)">
    <g id="Group_642" data-name="Group 642">
      <g id="Group_640" data-name="Group 640" transform="translate(910 2944)">
        <g id="Ellipse_16" data-name="Ellipse 16" fill="none" stroke="#bdcc19" stroke-width="2">
          <circle cx="50" cy="50" r="50" stroke="none"/>
          <circle cx="50" cy="50" r="49" fill="none"/>
        </g>
      </g>
    </g>
    <path id="Path_356" data-name="Path 356" d="M58.9,55.154,52.484,41.264h4.358a.879.879,0,0,0,.86-.884V36.07a.842.842,0,0,0-.86-.84H36.117a4.55,4.55,0,0,0-6.828,0H8.456a.842.842,0,0,0-.86.84v4.31a.879.879,0,0,0,.86.884h4.466L6.509,55.154a.857.857,0,0,0-.773.852,8.529,8.529,0,0,0,14.575,6.017A8.433,8.433,0,0,0,22.857,56a.852.852,0,0,0-.83-.85L15.616,41.264H29.289c.124.108.257.251.4.375V69.722a7.359,7.359,0,0,0-4.3,5.916h-3.5a.78.78,0,0,0-.816.81v4.31a.87.87,0,0,0,.816.914H43.524a.87.87,0,0,0,.816-.914v-4.31a.78.78,0,0,0-.816-.81h-3.5a7.359,7.359,0,0,0-4.3-5.916V41.639c.14-.124.273-.267.4-.375H49.79L43.379,55.151a.856.856,0,0,0-.83.855,8.529,8.529,0,0,0,14.575,6.016,8.421,8.421,0,0,0,2.546-6.016A.858.858,0,0,0,58.9,55.154Zm-1.9.011H45.278l5.859-12.7ZM32.7,35.39a2.835,2.835,0,1,1-2.835,2.835A2.835,2.835,0,0,1,32.7,35.39ZM14.269,42.464l5.859,12.7H8.41Zm0,20.371a6.826,6.826,0,0,1-6.754-5.946h13.56A7.015,7.015,0,0,1,14.269,62.835ZM9.32,39.54V36.954H28.331a4.542,4.542,0,0,0,0,2.586Zm33.3,40.407H22.789V77.361H42.616Zm-4.329-4.31H27.119a5.65,5.65,0,0,1,11.168,0ZM34,69.189a7.268,7.268,0,0,0-2.586,0V42.6A4.545,4.545,0,0,0,34,42.6Zm3.078-32.235h18.9V39.54h-18.9a4.542,4.542,0,0,0,0-2.586ZM51.082,62.835a6.826,6.826,0,0,1-6.755-5.946h13.56a7.015,7.015,0,0,1-6.806,5.946Z" transform="translate(927.264 2936.312)" fill="#bdcc19"/>
  </g>
</svg>
