<svg id="Group_636" data-name="Group 636" xmlns="http://www.w3.org/2000/svg" width="100" height="100" viewBox="0 0 100 100">
  <g id="Group_635" data-name="Group 635" transform="translate(-351.5 -2942)">
    <g id="Group_584" data-name="Group 584">
      <g id="Group_588" data-name="Group 588" transform="translate(351.5 2942)">
        <g id="Group_596" data-name="Group 596">
          <g id="Group_595" data-name="Group 595">
            <g id="Group_594" data-name="Group 594">
              <g id="Group_593" data-name="Group 593">
                <g id="Group_592" data-name="Group 592">
                  <g id="Group_590" data-name="Group 590">
                    <g id="Ellipse_15" data-name="Ellipse 15" fill="none" stroke="#006cb7" stroke-width="2">
                      <circle cx="50" cy="50" r="50" stroke="none"/>
                      <circle cx="50" cy="50" r="49" fill="none"/>
                    </g>
                  </g>
                </g>
              </g>
            </g>
          </g>
        </g>
      </g>
    </g>
  </g>
  <g id="Layer_1" transform="translate(22.125 24.125)">
    <path id="Path_350" data-name="Path 350" d="M47.26,5a4.65,4.65,0,0,0-4.646,4.646v15.1a4.414,4.414,0,0,0-2.944,1.3L31,34.717V56.1H46.1V42.647l5.807-5.807V9.646A4.65,4.65,0,0,0,47.26,5Zm2.323,30.878-5.807,5.807v12.1H33.323v-18.1l7.99-7.99a2.125,2.125,0,0,1,3,3L39.47,35.538l1.642,1.642,4.846-4.846a4.445,4.445,0,0,0-1.021-7.049V9.646a2.323,2.323,0,1,1,4.646,0Z" transform="translate(3.844 -0.354)" fill="#006cb7"/>
    <path id="Path_351" data-name="Path 351" d="M10.292,24.749V9.646A4.646,4.646,0,0,0,1,9.646V36.84l5.807,5.807V56.1h15.1V34.717l-8.67-8.67a4.409,4.409,0,0,0-2.944-1.3Zm9.292,29.032H9.13v-12.1L3.323,35.878V9.646a2.323,2.323,0,0,1,4.646,0v15.64a4.445,4.445,0,0,0-1.021,7.049l4.846,4.846,1.642-1.642L8.59,30.692a2.125,2.125,0,0,1,3-3l7.99,7.99Z" transform="translate(-1 -0.354)" fill="#006cb7"/>
    <path id="Path_352" data-name="Path 352" d="M20.969,4.484a3.484,3.484,0,1,0-4.646,3.271v3.017l4.646,4.646v3h2.323V14.457L18.646,9.811V7.755a3.48,3.48,0,0,0,2.323-3.271ZM17.484,3.323a1.161,1.161,0,1,1-1.161,1.161A1.161,1.161,0,0,1,17.484,3.323Z" transform="translate(1.1 -1)" fill="#006cb7"/>
    <path id="Path_353" data-name="Path 353" d="M26.646,18.422V7.755a3.484,3.484,0,1,0-2.323,0V18.422Zm-1.161-15.1a1.161,1.161,0,1,1-1.161,1.161A1.161,1.161,0,0,1,25.484,3.323Z" transform="translate(2.391 -1)" fill="#006cb7"/>
    <path id="Path_354" data-name="Path 354" d="M34.969,7.755a3.484,3.484,0,1,0-2.323,0V9.811L28,14.457v3.965h2.323v-3l4.646-4.646ZM33.807,3.323a1.161,1.161,0,1,1-1.161,1.161A1.161,1.161,0,0,1,33.807,3.323Z" transform="translate(3.359 -1)" fill="#006cb7"/>
    <path id="Path_355" data-name="Path 355" d="M36.906,14H34.583v4.646H18.323V14H16v6.969H36.906Z" transform="translate(1.422 1.099)" fill="#006cb7"/>
  </g>
</svg>
