<svg xmlns="http://www.w3.org/2000/svg" width="342.416" height="410.375" viewBox="0 0 342.416 410.375">
  <g id="Component_8_1" data-name="Component 8 – 1" transform="translate(0.509 0.5)">
    <path id="Path_565" data-name="Path 565" d="M-409.266,767.329a70.654,70.654,0,0,1,25.763-9.187,62.979,62.979,0,0,1,18.98.13c-.541-.96-1-1.963-1.559-2.908-9.548-16.339-22.385-29.8-39.236-36.076a55.956,55.956,0,0,0-29.322,13.351,86.428,86.428,0,0,0-10.515,11.511,106.326,106.326,0,0,1,35.83,23.086c.03.043.036.057.058.094" transform="translate(640.238 -607.19)" fill="#d9d9d9" stroke="rgba(0,0,0,0)" stroke-width="1"/>
    <path id="Path_566" data-name="Path 566" d="M-392.28,638.374a25.769,25.769,0,0,1-.31-3.37,24.233,24.233,0,0,1,1.176-7.729l-10.66-3.457a44.628,44.628,0,0,0-.519,7.26,43.105,43.105,0,0,0,1,8.747Z" transform="translate(630.702 -585.798)" fill="#d9d9d9" stroke="rgba(0,0,0,0)" stroke-width="1"/>
    <path id="Path_567" data-name="Path 567" d="M-364.7,600.1c.123-.007.216.015.324.015V576.533a44.165,44.165,0,0,0-19.016,10.046l8.191,16.143a23.789,23.789,0,0,1,10.5-2.62" transform="translate(626.398 -575.203)" fill="#d9d9d9" stroke="rgba(0,0,0,0)" stroke-width="1"/>
    <path id="Path_568" data-name="Path 568" d="M-399.455,650.173a44.144,44.144,0,0,0,7.57,13.6l6.993-6.971a23.881,23.881,0,0,1-5.816-9.476Z" transform="translate(629.998 -591.065)" fill="#d9d9d9" stroke="rgba(0,0,0,0)" stroke-width="1"/>
    <path id="Path_569" data-name="Path 569" d="M-368.515,666.983a24.1,24.1,0,0,1-10.248-4.272l-6.214,8.544a44.833,44.833,0,0,0,14.282,9.244Z" transform="translate(626.753 -594.513)" fill="#d9d9d9" stroke="rgba(0,0,0,0)" stroke-width="1"/>
    <path id="Path_570" data-name="Path 570" d="M-382.242,609.013l-9.656-13.271a44.608,44.608,0,0,0-8.516,16.151l10.926,5.585a24.118,24.118,0,0,1,7.246-8.465" transform="translate(630.212 -579.507)" fill="#d9d9d9" stroke="rgba(0,0,0,0)" stroke-width="1"/>
    <path id="Path_571" data-name="Path 571" d="M-548.374,650.984l-11.338-15.609a42.656,42.656,0,0,0-8.191,17.081l12.73,6.524a22.724,22.724,0,0,1,6.8-8" transform="translate(667.742 -588.388)" fill="#d9d9d9" stroke="rgba(0,0,0,0)" stroke-width="1"/>
    <path id="Path_572" data-name="Path 572" d="M-496.889,678.023a21,21,0,0,1-1.082,5.658l23.815,7.736a42.168,42.168,0,0,0,6.1-19.484c.057-1.1.043-2.173.022-3.277l-29.083,4.561a21.236,21.236,0,0,1,.224,4.806" transform="translate(652.072 -595.845)" fill="#d9d9d9" stroke="rgba(0,0,0,0)" stroke-width="1"/>
    <path id="Path_573" data-name="Path 573" d="M-499.521,661.039l28.968-9.41a42.777,42.777,0,0,0-12.16-21.737L-505,652.076a22.711,22.711,0,0,1,5.477,8.964" transform="translate(653.647 -587.159)" fill="#d9d9d9" stroke="rgba(0,0,0,0)" stroke-width="1"/>
    <path id="Path_574" data-name="Path 574" d="M-531.33,642.3V615.8a42.579,42.579,0,0,0-19.8,10.045l9.577,18.9A22.467,22.467,0,0,1-531.33,642.3" transform="translate(663.983 -584.001)" fill="#d9d9d9" stroke="rgba(0,0,0,0)" stroke-width="1"/>
    <path id="Path_575" data-name="Path 575" d="M-493.056,621.168a42.474,42.474,0,0,0-20.214-6.509c-1.1-.065-2.215-.057-3.319-.036l-4.438,27.661a22.384,22.384,0,0,1,9.714,4.034Z" transform="translate(657.239 -583.734)" fill="#d9d9d9" stroke="rgba(0,0,0,0)" stroke-width="1"/>
    <path id="Path_576" data-name="Path 576" d="M-525.276,799.127c-18.712-.512-29.552,16.2-30.374,34.114.057.541.086,1.082.137,1.623.483.109,19.29,4.265,30.367,11.734,2.252-14.577,8.964-31.262,18.583-43.25a59.127,59.127,0,0,0-7.426-2.511,52.661,52.661,0,0,0-11.287-1.711" transform="translate(664.997 -625.077)" fill="#d9d9d9" stroke="rgba(0,0,0,0)" stroke-width="1"/>
    <path id="Path_577" data-name="Path 577" d="M-522.224,751.29a70.205,70.205,0,0,0-10.45,7.253A68.258,68.258,0,0,0-556.5,810.229a68.773,68.773,0,0,0,.664,10.024c-.975-19.522,10.1-39.2,30.375-38.638a53.115,53.115,0,0,1,11.287,1.7A67.451,67.451,0,0,1-489.715,795.8c1.552,1.2,3.118,2.519,4.59,3.882a92.865,92.865,0,0,1,8.884,8.87,94.418,94.418,0,0,1,7.679,10.169c.209.3.346.584.549.923A164.114,164.114,0,0,1-453.6,847.964c12.55,32.345,20.308,78.885,8.516,110.912-6.69,18.258-18.251,32.807-32.4,44.693A56.88,56.88,0,0,0-460.977,1000c1.082-.418,2.172-.923,3.262-1.435,1.047-.513,2.086-1.018,3.146-1.617,24.313-23.577,43.329-57.4,50.415-91.413,6.935-33.536,2.894-70.68-14.109-103.191a128.786,128.786,0,0,0-19.34-27.272,106.9,106.9,0,0,0-33.038-24.543c-1.234-.584-2.432-1.255-3.7-1.775a65.172,65.172,0,0,0-9.288-2.381c-13.74-3.031-27.221-1.473-38.594,4.914" transform="translate(665.188 -612.926)" fill="#d9d9d9" stroke="rgba(0,0,0,0)" stroke-width="1"/>
    <path id="Path_578" data-name="Path 578" d="M-481.691,1039.873a250.331,250.331,0,0,0,7.476-28.383c.795-3.738,1.429-7.577,2.036-11.366.324-1.689.663-3.356.916-5.059.83-5.413,1.509-10.8,2.05-16.223,1.927-20.076,1.183-42.008-9.642-60.273a25.866,25.866,0,0,0-23.273-7.722,27.8,27.8,0,0,0-12.254,5.449,29.812,29.812,0,0,0-3.947,3.435c-.224.231-.433.535-.635.772,1.48,2.584,3,5.117,4.417,7.758a164.176,164.176,0,0,1,12.059,26.889,172.76,172.76,0,0,1,5.578,20.351c.621,2.836,1.321,5.658,1.819,8.544a179.177,179.177,0,0,1,1.566,49.094s3.327,3.132,11.835,6.734" transform="translate(656.777 -650.032)" fill="#d9d9d9" stroke="rgba(0,0,0,0)" stroke-width="1"/>
    <path id="Path_579" data-name="Path 579" d="M-534.524,706.53a22.291,22.291,0,0,1-9.67-4.048l-5.24,7.238a42.415,42.415,0,0,0,13.192,7.491Z" transform="translate(663.604 -603.425)" fill="#d9d9d9" stroke="rgba(0,0,0,0)" stroke-width="1"/>
    <path id="Path_580" data-name="Path 580" d="M-564.624,690.869a42.711,42.711,0,0,0,8.148,12.2l6.162-6.141a22.646,22.646,0,0,1-5.456-8.935Z" transform="translate(667.008 -600.177)" fill="#d9d9d9" stroke="rgba(0,0,0,0)" stroke-width="1"/>
    <path id="Path_581" data-name="Path 581" d="M-525.613,707.337v11.872a44.387,44.387,0,0,0,6.184.888,43.7,43.7,0,0,0,11.251-.851l-7.267-14.311a22.508,22.508,0,0,1-10.168,2.4" transform="translate(658.266 -603.974)" fill="#d9d9d9" stroke="rgba(0,0,0,0)" stroke-width="1"/>
    <path id="Path_582" data-name="Path 582" d="M-481.037,702.862-501.7,692.289a22.732,22.732,0,0,1-6.834,7.953L-498.1,714.61a42.645,42.645,0,0,0,17.06-11.748" transform="translate(654.439 -601.141)" fill="#d9d9d9" stroke="rgba(0,0,0,0)" stroke-width="1"/>
    <path id="Path_583" data-name="Path 583" d="M-328.339,634.933a23.646,23.646,0,0,1-1.2,7.787l27.481,8.919a44.466,44.466,0,0,0,5.03-21.253c-.029-1.249-.137-2.461-.238-3.681l-31.378,4.915a23.878,23.878,0,0,1,.3,3.313" transform="translate(614.331 -586.445)" fill="#d9d9d9" stroke="rgba(0,0,0,0)" stroke-width="1"/>
    <path id="Path_584" data-name="Path 584" d="M-331.166,619.193l30.483-9.9a44.577,44.577,0,0,0-14.383-21.455L-337,609.69a24.081,24.081,0,0,1,5.831,9.5" transform="translate(616.002 -577.736)" fill="#d9d9d9" stroke="rgba(0,0,0,0)" stroke-width="1"/>
    <path id="Path_585" data-name="Path 585" d="M-340.736,660.323l12.939,17.818a44.686,44.686,0,0,0,18.633-13.8L-333.5,651.872a24.077,24.077,0,0,1-7.238,8.451" transform="translate(616.84 -592.084)" fill="#d9d9d9" stroke="rgba(0,0,0,0)" stroke-width="1"/>
    <path id="Path_586" data-name="Path 586" d="M-326.115,580.084a44.305,44.305,0,0,0-21.672-5.261c-.736.014-1.458.1-2.208.151l-3.991,25.056a23.786,23.786,0,0,1,10.29,4.272Z" transform="translate(619.809 -574.819)" fill="#d9d9d9" stroke="rgba(0,0,0,0)" stroke-width="1"/>
    <path id="Path_587" data-name="Path 587" d="M-358.883,682.949a44.466,44.466,0,0,0,11.337,1.342,43.958,43.958,0,0,0,8.61-1l-9.129-18.005a23.836,23.836,0,0,1-10.421,2.6c-.13,0-.268-.021-.4-.021Z" transform="translate(620.906 -595.091)" fill="#d9d9d9" stroke="rgba(0,0,0,0)" stroke-width="1"/>
    <path id="Path_588" data-name="Path 588" d="M-613.523,735.689a41.149,41.149,0,0,0-13.957-8.1l-2.013,12.5a22.985,22.985,0,0,1,9.808,4.078Z" transform="translate(681.543 -609.051)" fill="#d9d9d9" stroke="rgba(0,0,0,0)" stroke-width="1"/>
    <path id="Path_589" data-name="Path 589" d="M-644.377,739.735a23.02,23.02,0,0,1,5.008-.549V725.5a40.377,40.377,0,0,0-16.561.325c-.549.108-1.075.252-1.588.4l7.838,15.451a22.678,22.678,0,0,1,5.3-1.941" transform="translate(687.823 -608.426)" fill="#d9d9d9" stroke="rgba(0,0,0,0)" stroke-width="1"/>
    <path id="Path_590" data-name="Path 590" d="M-645.905,800.512a22.662,22.662,0,0,1-9.757-4.07l-14.968,20.575a41.226,41.226,0,0,0,21.152,5.687Z" transform="translate(690.76 -624.479)" fill="#d9d9d9" stroke="rgba(0,0,0,0)" stroke-width="1"/>
    <path id="Path_591" data-name="Path 591" d="M-607.751,758.992l9.273-3.017a40.366,40.366,0,0,0-7.693-13.142l-7.123,7.109a22.515,22.515,0,0,1,5.542,9.05" transform="translate(677.913 -612.466)" fill="#d9d9d9" stroke="rgba(0,0,0,0)" stroke-width="1"/>
    <path id="Path_592" data-name="Path 592" d="M-606.222,778.315l11.164,3.615a40.727,40.727,0,0,0-.383-15.717l-9.909,1.529a22.346,22.346,0,0,1-.873,10.573" transform="translate(676.329 -617.705)" fill="#d9d9d9" stroke="rgba(0,0,0,0)" stroke-width="1"/>
    <path id="Path_593" data-name="Path 593" d="M-694.434,789.964A40.517,40.517,0,0,0-682.216,809.2l18.467-18.381a22.615,22.615,0,0,1-5.528-9.021Z" transform="translate(696.094 -621.197)" fill="#d9d9d9" stroke="rgba(0,0,0,0)" stroke-width="1"/>
    <path id="Path_594" data-name="Path 594" d="M-598.763,791.853l-11.214-5.715a22.61,22.61,0,0,1-6.892,8.032l9.345,12.838a41.2,41.2,0,0,0,8.761-15.155" transform="translate(678.714 -622.169)" fill="#d9d9d9" stroke="rgba(0,0,0,0)" stroke-width="1"/>
    <path id="Path_595" data-name="Path 595" d="M-629.057,800.808a23.419,23.419,0,0,1-5.066.534v21.21c.505-.1,1.017-.2,1.508-.317a40.432,40.432,0,0,0,16.576-7.989l-7.793-15.35a22.952,22.952,0,0,1-5.225,1.913" transform="translate(682.58 -625.028)" fill="#d9d9d9" stroke="rgba(0,0,0,0)" stroke-width="1"/>
    <path id="Path_596" data-name="Path 596" d="M-412.19,965.372c.245-.252.541-.512.809-.75.5-.483,1.024-.9,1.529-1.364,43.177-42.333,68.68-102.858,59.466-167.555a129.366,129.366,0,0,0-6.308-21.961,96.2,96.2,0,0,0-10.269-18.46,102.95,102.95,0,0,0-15.155-16.9,81.336,81.336,0,0,0-11.872-8.689,70.382,70.382,0,0,0-13.271-6.1,88.714,88.714,0,0,0-11.5-3.688,87.517,87.517,0,0,0-17.371-2.519,75.955,75.955,0,0,0-16.367,1.1c-.064,0-.158.015-.223.022,20.841,5.463,35.571,21.361,45.717,40.839a170.243,170.243,0,0,1,9.786,22.768c17.2,49.968,11.388,108.04-16.858,152.8-2.692,4.258-5.513,8.371-8.537,12.362-2.224,3.111-4.641,6.019-7.022,8.92-.433.477-.8,1.039-1.2,1.494-3.06,3.515-6.286,6.885-9.663,10.06a142.909,142.909,0,0,1-24.609,18.359c-.087.029-.151.079-.267.13-11.994,7.108-24.046,13.351-38.7,12.787a64.739,64.739,0,0,1-11.056-1.32,61.25,61.25,0,0,1-11.879-4.012,57.375,57.375,0,0,1-5.636-2.706,67.743,67.743,0,0,1-10.8-7.779,81.81,81.81,0,0,1-22.841-34.048,84.9,84.9,0,0,1-3.579-12.99c-3.651-18.474-1.386-37.4,6.214-52.5a64.5,64.5,0,0,1,4.323-7.4,39.092,39.092,0,0,1,3.948-4.828A31.765,31.765,0,0,1-551.428,868a27.794,27.794,0,0,1,12.261-5.441c8.768-1.48,19.016,1.393,25.164,9.951-.483-.866-1.061-1.631-1.537-2.439A63.434,63.434,0,0,0-524.5,858.2c-9.57-9.973-17.883-19.261-29.726-27.012a101.366,101.366,0,0,0-27.466-12.651c-26.045-7.513-54.623-3.782-71.654,20.6-12.9,18.453-16.064,45.587-11.186,66.956,7.989,34.763,33.962,66.855,63.9,86.643,3.233,2.151,6.553,4.15,9.894,6.07,16.606,9.367,34.972,15.876,52.71,16.988a154.264,154.264,0,0,0,15.941-.036c2.158-.195,10.154-.787,12.3-1.118,7.65-1.228,15.206-2.779,22.545-4.684,26.55-6.841,45.688-19.059,65.744-36.09,3.2-2.728,6.271-5.593,9.31-8.487" transform="translate(689.88 -606.742)" fill="#d9d9d9" stroke="rgba(0,0,0,0)" stroke-width="1"/>
    <path id="Path_597" data-name="Path 597" d="M-659.2,744.6l-10.977-15.1a40.763,40.763,0,0,0-15.985,12.9l20.091,10.276A23.124,23.124,0,0,1-659.2,744.6" transform="translate(694.242 -609.477)" fill="#d9d9d9" stroke="rgba(0,0,0,0)" stroke-width="1"/>
    <path id="Path_598" data-name="Path 598" d="M-669.753,761.564l-22.581-7.332a40.536,40.536,0,0,0-4.056,21.917l25.806-4.042a22.678,22.678,0,0,1,.83-10.543" transform="translate(696.574 -615.021)" fill="#d9d9d9" stroke="rgba(0,0,0,0)" stroke-width="1"/>
    <path id="Path_599" data-name="Path 599" d="M-557.669,679.363a23.364,23.364,0,0,1-.26-4.893,22.566,22.566,0,0,1,1.089-5.557l-12.29-3.984c-.036.339-.079.686-.115,1.047a42.975,42.975,0,0,0,1.8,14.916Z" transform="translate(668.059 -595.01)" fill="#d9d9d9" stroke="rgba(0,0,0,0)" stroke-width="1"/>
  </g>
</svg>
