<svg xmlns="http://www.w3.org/2000/svg" xmlns:xlink="http://www.w3.org/1999/xlink" width="80" height="80" viewBox="0 0 80 80">
  <defs>
    <clipPath id="clip-path">
      <rect id="Rectangle_270" data-name="Rectangle 270" width="80" height="80" transform="translate(0 -0.448)" fill="none" stroke="#144dcc" stroke-width="3"/>
    </clipPath>
  </defs>
  <g id="Group_374" data-name="Group 374" transform="translate(0 0.448)" clip-path="url(#clip-path)">
    <path id="Path_538" data-name="Path 538" d="M61.5,65.246h0A21.516,21.516,0,0,1,61.5,46" transform="translate(16.768 13.023)" fill="none" stroke="#144dcc" stroke-linecap="round" stroke-linejoin="round" stroke-width="3"/>
    <path id="Path_539" data-name="Path 539" d="M77.986,46H10.623a9.623,9.623,0,0,0,0,19.246H77.986" transform="translate(0.283 13.023)" fill="none" stroke="#144dcc" stroke-linecap="round" stroke-linejoin="round" stroke-width="3"/>
    <path id="Path_540" data-name="Path 540" d="M77.986,58.739l-9-54.033A4.437,4.437,0,0,0,64.6,1H14.467a4.436,4.436,0,0,0-4.392,3.8L1,67.852" transform="translate(0.283 0.283)" fill="none" stroke="#144dcc" stroke-linecap="round" stroke-linejoin="round" stroke-width="3"/>
    <path id="Path_541" data-name="Path 541" d="M62.813,28.575,59.656,9.635a3.459,3.459,0,0,0-3.412-2.891H17.162a3.458,3.458,0,0,0-3.423,2.967L11.011,28.654A3.629,3.629,0,0,0,14.6,32.8H59.233A3.629,3.629,0,0,0,62.813,28.575Z" transform="translate(3.107 1.909)" fill="none" stroke="#144dcc" stroke-linecap="round" stroke-linejoin="round" stroke-width="3"/>
    <line id="Line_31" data-name="Line 31" x1="37.967" transform="translate(11.418 68.646)" fill="none" stroke="#144dcc" stroke-linecap="round" stroke-linejoin="round" stroke-width="3"/>
    <line id="Line_32" data-name="Line 32" x1="11.051" transform="translate(57.083 68.646)" fill="none" stroke="#144dcc" stroke-linecap="round" stroke-linejoin="round" stroke-width="3"/>
  </g>
</svg>
