<svg xmlns="http://www.w3.org/2000/svg" xmlns:xlink="http://www.w3.org/1999/xlink" width="80" height="80" viewBox="0 0 80 80">
  <defs>
    <clipPath id="clip-path">
      <rect id="Rectangle_278" data-name="Rectangle 278" width="80" height="80" transform="translate(0 0.417)" fill="none" stroke="#144dcc" stroke-width="3"/>
    </clipPath>
  </defs>
  <g id="Group_381" data-name="Group 381" transform="translate(0 -0.417)" clip-path="url(#clip-path)">
    <path id="Path_545" data-name="Path 545" d="M49.262,14.182H76.391a2.432,2.432,0,0,1,0,4.864H3.432a2.432,2.432,0,1,1,0-4.864H30.561" transform="translate(0.297 4.213)" fill="none" stroke="#144dcc" stroke-linecap="round" stroke-linejoin="round" stroke-width="3"/>
    <path id="Path_546" data-name="Path 546" d="M73.959,63.228H5.864a4.864,4.864,0,1,1,0-9.728H73.959a4.864,4.864,0,0,1,0,9.728Z" transform="translate(0.297 15.892)" fill="none" stroke="#144dcc" stroke-linecap="round" stroke-linejoin="round" stroke-width="3"/>
    <rect id="Rectangle_276" data-name="Rectangle 276" width="9.262" height="46.132" transform="translate(12.75 23.26)" fill="none" stroke="#144dcc" stroke-linecap="round" stroke-linejoin="round" stroke-width="3"/>
    <path id="Path_547" data-name="Path 547" d="M44.408,62.258H22.588V34.926a10.91,10.91,0,1,1,21.82,0Z" transform="translate(6.71 7.134)" fill="none" stroke="#144dcc" stroke-linecap="round" stroke-linejoin="round" stroke-width="3"/>
    <rect id="Rectangle_277" data-name="Rectangle 277" width="9.262" height="46.132" transform="translate(57.964 23.26)" fill="none" stroke="#144dcc" stroke-linecap="round" stroke-linejoin="round" stroke-width="3"/>
    <path id="Path_548" data-name="Path 548" d="M33.141,1h0a9.35,9.35,0,0,0-9.35,9.35V22.963h18.7V10.35A9.35,9.35,0,0,0,33.141,1Z" transform="translate(7.067 0.297)" fill="none" stroke="#144dcc" stroke-linecap="round" stroke-linejoin="round" stroke-width="3"/>
  </g>
</svg>
