<svg id="Group_303" data-name="Group 303" xmlns="http://www.w3.org/2000/svg" width="27.991" height="26.593" viewBox="0 0 27.991 26.593">
  <path id="Path_369" data-name="Path 369" d="M15.363.868l3.121,6.257a1.558,1.558,0,0,0,1.174.847L26.649,8.99a1.566,1.566,0,0,1,1.03.6,1.514,1.514,0,0,1,.293,1.141,1.549,1.549,0,0,1-.449.883l-5.069,4.908a1.481,1.481,0,0,0-.449,1.35l1.248,6.908a1.56,1.56,0,0,1-1.248,1.779,1.635,1.635,0,0,1-1-.16L14.764,23.15a1.636,1.636,0,0,0-1.473,0L7.049,26.4A1.6,1.6,0,0,1,4.9,25.775a1.583,1.583,0,0,1-.162-.982l1.248-6.908a1.481,1.481,0,0,0-.449-1.35L.47,11.628a1.515,1.515,0,0,1,0-2.184A1.52,1.52,0,0,1,1.369,9L8.36,7.984a1.558,1.558,0,0,0,1.174-.847L12.542.868A1.551,1.551,0,0,1,13.965.009h.187A1.559,1.559,0,0,1,15.363.868Z" transform="translate(0.002 0.004)" fill="#ffb934"/>
  <path id="Path_370" data-name="Path 370" d="M14,22.969a1.7,1.7,0,0,0-.774.211L7.009,26.423a1.626,1.626,0,0,1-2.1-.645,1.535,1.535,0,0,1-.162-.969l1.248-6.9a1.542,1.542,0,0,0-.449-1.362L.46,11.644a1.527,1.527,0,0,1,0-2.184,1.6,1.6,0,0,1,.886-.442L8.362,7.988a1.519,1.519,0,0,0,1.174-.847L12.583.8A1.555,1.555,0,0,1,14.017.013C14,.43,14,22.687,14,22.969Z" transform="translate(0 0)" fill="#ffb934"/>
</svg>
