<svg xmlns="http://www.w3.org/2000/svg" width="28.015" height="28.015" viewBox="0 0 28.015 28.015">
  <g id="Group_584" data-name="Group 584" transform="translate(0 0)">
    <path id="Path_606" data-name="Path 606" d="M14.007,0A14.007,14.007,0,1,0,28.015,14.007,14.007,14.007,0,0,0,14.007,0Zm0,25.68A11.673,11.673,0,1,1,25.68,14.007,11.673,11.673,0,0,1,14.007,25.68Z" fill="#565b74"/>
    <path id="Path_607" data-name="Path 607" d="M18.6,15.672l-5.27-3.162V6.167a1.167,1.167,0,1,0-2.335,0v7a1.255,1.255,0,0,0,.566,1l5.836,3.5a1.167,1.167,0,1,0,1.2-2Z" transform="translate(1.84 0.836)" fill="#565b74"/>
  </g>
</svg>
