<svg xmlns="http://www.w3.org/2000/svg" width="1925.125" height="64.211" viewBox="0 0 1925.125 64.211">
  <g id="Group_305" data-name="Group 305" transform="translate(2.562 -6814.447)">
    <path id="Path_359" data-name="Path 359" d="M2220,6939.2s82.978-30.106,240.366-30.106" transform="translate(-2220 -92.644)" fill="none" stroke="#80d3a6" stroke-linecap="round" stroke-width="4" stroke-dasharray="2 12"/>
    <path id="Path_366" data-name="Path 366" d="M2220,6939.2s82.978-30.106,240.366-30.106" transform="translate(-1260 -92.644)" fill="none" stroke="#80d3a6" stroke-linecap="round" stroke-width="4" stroke-dasharray="2 12"/>
    <path id="Path_362" data-name="Path 362" d="M2460.366,6909.091S2377.388,6939.2,2220,6939.2" transform="translate(-1500.366 -62.539)" fill="none" stroke="#80d3a6" stroke-linecap="round" stroke-width="4" stroke-dasharray="2 12"/>
    <path id="Path_360" data-name="Path 360" d="M2460.366,6939.2s-82.978-30.106-240.366-30.106" transform="translate(-1980.366 -92.644)" fill="none" stroke="#80d3a6" stroke-linecap="round" stroke-width="4" stroke-dasharray="2 12"/>
    <path id="Path_365" data-name="Path 365" d="M2460.366,6939.2s-82.978-30.106-240.366-30.106" transform="translate(-1020.366 -92.644)" fill="none" stroke="#80d3a6" stroke-linecap="round" stroke-width="4" stroke-dasharray="2 12"/>
    <path id="Path_361" data-name="Path 361" d="M2220,6909.091s82.978,30.106,240.366,30.106" transform="translate(-1740 -62.539)" fill="none" stroke="#80d3a6" stroke-linecap="round" stroke-width="4" stroke-dasharray="2 12"/>
    <path id="Path_364" data-name="Path 364" d="M2460.366,6909.091S2377.388,6939.2,2220,6939.2" transform="translate(-540.366 -62.539)" fill="none" stroke="#80d3a6" stroke-linecap="round" stroke-width="4" stroke-dasharray="2 12"/>
    <path id="Path_363" data-name="Path 363" d="M2220,6909.091s82.978,30.106,240.366,30.106" transform="translate(-780 -62.539)" fill="none" stroke="#80d3a6" stroke-linecap="round" stroke-width="4" stroke-dasharray="2 12"/>
  </g>
</svg>
