<svg xmlns="http://www.w3.org/2000/svg" width="28" height="28" viewBox="0 0 28 28">
  <path id="path7" d="M14.986.986a14,14,0,1,0,14,14,14.016,14.016,0,0,0-14-14Zm0,2a11.979,11.979,0,0,1,8.8,20.136,11.649,11.649,0,0,0-5.118-3.5A5.978,5.978,0,1,0,8.9,15.022a5.923,5.923,0,0,0,2.2,4.587A11.669,11.669,0,0,0,6.064,23,11.991,11.991,0,0,1,14.986,2.982Zm-.07,8.024a3.987,3.987,0,0,1,.13,7.972c-.058,0-.114-.012-.172-.012s-.1.01-.148.012a3.988,3.988,0,0,1,.192-7.972Zm-.192,9.964c.048,0,.1.016.144.016h.048c.044,0,.08-.014.124-.016a9.661,9.661,0,0,1,7.271,3.5,11.936,11.936,0,0,1-14.794-.092,9.677,9.677,0,0,1,7.208-3.405Z" transform="translate(-0.986 -0.986)" fill="#565b74"/>
</svg>
